<svg xmlns="http://www.w3.org/2000/svg" xmlns:xlink="http://www.w3.org/1999/xlink" version="1.1" x="0px" y="0px" viewBox="0 0 48 48" enable-background="new 0 0 48 48" xml:space="preserve"><g><path d="M24,45.604c-0.256,0-0.512-0.098-0.707-0.293c-2.157-2.156-4.285-4.22-6.343-6.216C7.48,29.911,0,22.658,0,16.375   C0,8.667,6.271,2.397,13.978,2.397c3.804,0,7.396,1.529,10.022,4.232c2.626-2.703,6.218-4.232,10.021-4.232   C41.729,2.397,48,8.667,48,16.375c0,6.266-6.981,13.04-16.645,22.416c-2.139,2.075-4.351,4.222-6.648,6.52   C24.512,45.506,24.256,45.604,24,45.604z M13.978,4.397C7.374,4.397,2,9.771,2,16.375c0,5.437,7.573,12.78,16.342,21.284   c1.839,1.783,3.733,3.62,5.658,5.532c2.056-2.044,4.038-3.968,5.963-5.835C38.923,28.662,46,21.795,46,16.375   c0-6.604-5.374-11.978-11.979-11.978c-3.592,0-6.963,1.592-9.25,4.367c-0.379,0.461-1.164,0.461-1.543,0   C20.942,5.989,17.57,4.397,13.978,4.397z"></path></g></svg>