<svg xmlns="http://www.w3.org/2000/svg" xmlns:xlink="http://www.w3.org/1999/xlink" version="1.1" x="0px" y="0px" viewBox="-549 351 100 100" enable-background="new -549 351 100 100" xml:space="preserve"><g><path d="M-458.5,404.8c0-3-2.4-5.4-5.4-5.4c0,0-0.1,0-0.1,0c1.8-1.6,3-4,3-6.6v-1.6c0,0,0-0.1,0-0.1c-0.1-10.9-16.4-19.4-37.2-19.4   c-20.9,0-37.2,8.6-37.2,19.5v1.7c0,2,0.7,3.9,1.8,5.4c-2.5,0.5-4.4,2.7-4.4,5.3c0,3,2.4,5.4,5.4,5.4v4.4c-2.2,0.7-3.8,2.8-3.8,5.2   c0,2,1,3.7,2.6,4.7v3c0,3.6,2.9,6.6,6.6,6.6h58c3.6,0,6.6-2.9,6.6-6.6v-3c1.6-1,2.6-2.7,2.6-4.7c0-2.4-1.6-4.5-3.8-5.2v-3.1   C-460.9,410.2-458.5,407.8-458.5,404.8z M-529.6,409c1.6,0.1,2.7,0.3,3.8,0.5c1.8,0.3,3.6,0.7,7.1,0.7s5.4-0.4,7.1-0.7   c1.7-0.3,3.3-0.6,6.6-0.6s4.9,0.3,6.6,0.6c1.8,0.3,3.6,0.7,7.1,0.7c3.6,0,5.4-0.4,7.1-0.7c1.7-0.3,3.3-0.6,6.6-0.6s4.9,0.3,6.6,0.6   c1.2,0.2,2.4,0.5,4.2,0.6v2.9h-62.8V409z M-532.4,391.1c0-9,15.7-16.5,34.2-16.5c18.5,0,34.2,7.6,34.2,16.5c0,0,0,0,0,0.1   c0,0,0,0.1,0,0.1v1.5c0,3.3-2.7,6-6,6c-0.1,0-0.2,0-0.4,0c0,0-0.1,0-0.1,0c-1.8-0.3-3.6-0.7-7.1-0.7s-5.4,0.4-7.1,0.7   c-1.7,0.3-3.3,0.6-6.6,0.6c-3.3,0-4.9-0.3-6.6-0.6c-1.8-0.3-3.6-0.7-7.1-0.7c-3.6,0-5.4,0.4-7.1,0.7c-1.7,0.3-3.3,0.6-6.6,0.6   s-4.9-0.3-6.6-0.6c-1.1-0.2-2.2-0.4-3.8-0.6c-0.1-0.1-0.2-0.2-0.3-0.2c-1.9-1.1-3-3.1-3-5.2V391.1z M-535,403.5   c0-1.3,1.1-2.4,2.4-2.4c0,0,0.1,0,0.1,0c0.1,0,0.1,0,0.2,0c3.2,0,4.7,0.3,6.4,0.6c1.8,0.3,3.6,0.7,7.1,0.7c3.6,0,5.4-0.4,7.1-0.7   c1.7-0.3,3.3-0.6,6.6-0.6s4.9,0.3,6.6,0.6c1.8,0.3,3.6,0.7,7.1,0.7s5.4-0.4,7.1-0.7c1.7-0.3,3.3-0.6,6.6-0.6s4.9,0.3,6.6,0.6   c1.8,0.3,3.6,0.7,7.1,0.7c1.3,0,2.4,1.1,2.4,2.4s-1.1,2.4-2.4,2.4c-3.3,0-4.9-0.3-6.6-0.6c-1.8-0.3-3.6-0.7-7.1-0.7   c-3.6,0-5.4,0.4-7.1,0.7c-1.7,0.3-3.3,0.6-6.6,0.6s-4.9-0.3-6.6-0.6c-1.8-0.3-3.6-0.7-7.1-0.7c-3.6,0-5.4,0.4-7.1,0.7   c-1.7,0.3-3.3,0.6-6.6,0.6s-4.9-0.3-6.6-0.6c-1.8-0.3-3.6-0.7-7.1-0.7c0,0-0.1,0-0.1,0C-533.9,405.9-535,404.8-535,403.5z    M-465.7,426.2c0,2-1.6,3.6-3.6,3.6h-58c-2,0-3.6-1.6-3.6-3.6v-2.2h65.1V426.2z M-463.1,418.5c0,1.4-1.1,2.5-2.5,2.5h-65.3   c-1.4,0-2.5-1.1-2.5-2.5s1.1-2.5,2.5-2.5h65.3C-464.2,416-463.1,417.1-463.1,418.5z"></path><path d="M-517.8,392.6c1.4,0,2.5-1.1,2.5-2.5c0-0.6-0.5-3.6-2.5-3.6c-2,0-2.5,3.1-2.5,3.6C-520.4,391.4-519.2,392.6-517.8,392.6z"></path><path d="M-508.1,386.4c1.4,0,2.5-1.1,2.5-2.5c0-0.6-0.5-3.6-2.5-3.6c-2,0-2.5,3.1-2.5,3.6C-510.6,385.3-509.5,386.4-508.1,386.4z"></path><path d="M-498.4,392.6c1.4,0,2.5-1.1,2.5-2.5c0-0.6-0.5-3.6-2.5-3.6s-2.5,3.1-2.5,3.6C-500.9,391.4-499.7,392.6-498.4,392.6z"></path><path d="M-488.6,386.4c1.4,0,2.5-1.1,2.5-2.5c0-0.6-0.5-3.6-2.5-3.6c-2,0-2.5,3.1-2.5,3.6C-491.1,385.3-490,386.4-488.6,386.4z"></path><path d="M-478.9,392.6c1.4,0,2.5-1.1,2.5-2.5c0-0.6-0.5-3.6-2.5-3.6c-2,0-2.5,3.1-2.5,3.6C-481.4,391.4-480.2,392.6-478.9,392.6z"></path></g></svg>