<svg xmlns="http://www.w3.org/2000/svg" xmlns:xlink="http://www.w3.org/1999/xlink" version="1.1" x="0px" y="0px" viewBox="0 0 100 100" style="enable-background:new 0 0 100 100;" xml:space="preserve"><g><path d="M92.7,28.1c-0.8-0.3-1.7,0-2.2,0.6l-4.3,5.4c-1.9,2.4-4.9,3.7-7.9,3.6L49,36c-1.2-0.1-2.1,0.8-2.1,1.9   c-0.1,1.1,0.8,2,1.9,2.1L78,41.7c4.3,0.2,8.5-1.7,11.2-5.1l0.8-1V80c0,1.1-0.9,2-2,2h-1.1c-0.9,0-1.6-0.5-1.9-1.4l-6.2-18.5   C78,59.6,75.7,58,73.1,58c-0.4,0-0.7,0.1-1,0.3c0,0-3.6,2-12,1.7c-6.7-0.2-12-1.9-12.1-1.9C47.8,58,47.6,58,47.4,58   c-2.9,0-5.4,2.1-5.9,5l-3.2,19h-1c-1,0-1.8-0.7-1.9-1.4l-3.3-30.6c6.1-0.6,10.8-5.7,10.9-11.9c0,0,0,0,0,0c0,0,0,0,0,0   c0-0.1-0.1-0.3-0.1-0.4c0-0.1,0-0.2-0.1-0.4l0,0c0,0,0,0,0,0l-8.9-22c-0.3-0.8-1-1.2-1.8-1.2c0,0,0,0,0,0c-0.8,0-1.5,0.5-1.8,1.2   l-3.6,8.7L7.4,29.7c-0.5,0.2-1,0.5-1.2,1c-0.2,0.5-0.3,1.1-0.1,1.6l3,7.5c0.9,2.3,3.1,3.8,5.6,3.8H22c2.9,0,5.3,2,5.9,4.6l3.5,33   c0.6,2.8,3,4.8,5.9,4.8h1c2,0,3.6-1.4,3.9-3.3l3.2-19c0.1-0.9,0.9-1.6,1.7-1.7c1.4,0.4,6.4,1.8,12.8,2c7.9,0.3,12.1-1.2,13.6-2   c0.7,0.1,1.3,0.6,1.5,1.3l6.2,18.5c0.8,2.5,3.1,4.1,5.7,4.1H88c3.3,0,6-2.7,6-6V30C94,29.2,93.5,28.4,92.7,28.1z M22,39.6h-7.3   c-0.8,0-1.6-0.5-1.9-1.3l-2.2-5.5l17.9-5.4c0.6-0.2,1-0.6,1.3-1.1l2.1-5.1l6.9,17.1c-0.2,4.1-3.4,7.4-7.6,7.6   C29.9,42.2,26.2,39.6,22,39.6z"></path></g></svg>